<?xml version="1.0" standalone="no"?>
<!DOCTYPE svg PUBLIC "-//W3C//DTD SVG 20010904//EN"
 "http://www.w3.org/TR/2001/REC-SVG-20010904/DTD/svg10.dtd">
<svg version="1.0" xmlns="http://www.w3.org/2000/svg"
 width="512.000000pt" height="512.000000pt" viewBox="0 0 512.000000 512.000000"
 preserveAspectRatio="xMidYMid meet">
<metadata>
Created by potrace 1.16, written by Peter Selinger 2001-2019
</metadata>
<g transform="translate(0.000000,512.000000) scale(0.100000,-0.100000)"
fill="#000000" stroke="none">
<path d="M2039 5091 l-29 -29 0 -174 0 -173 -67 -19 c-117 -33 -270 -93 -395
-156 l-120 -61 -117 114 c-119 117 -153 137 -203 122 -13 -4 -175 -158 -361
-343 -351 -350 -361 -363 -342 -424 4 -12 59 -75 121 -139 l114 -115 -69 -140
c-38 -76 -92 -206 -120 -289 l-50 -150 -176 -5 -177 -5 -24 -28 -24 -28 0
-489 0 -489 24 -28 24 -28 177 -5 176 -5 50 -150 c28 -82 82 -213 120 -290
l70 -139 -110 -111 c-119 -120 -131 -137 -131 -187 0 -29 32 -64 342 -375 362
-362 369 -368 433 -343 16 6 79 60 140 121 l112 109 140 -69 c78 -40 206 -92
289 -120 l149 -49 5 -177 5 -177 28 -24 28 -24 268 0 268 0 27 26 26 27 0 498
0 499 498 0 497 -1 140 -257 c77 -141 139 -266 139 -277 -1 -11 -9 -38 -18
-60 -23 -60 -20 -172 5 -242 30 -79 113 -162 192 -192 132 -48 271 -19 368 78
70 70 99 140 99 241 0 101 -29 171 -99 241 -77 77 -145 103 -256 96 -44 -3
-89 -7 -99 -9 -16 -2 -46 47 -173 277 -84 154 -163 288 -174 298 -20 16 -62
17 -569 17 l-549 0 -3 155 c-3 152 -3 155 -30 181 -23 24 -37 28 -125 35 -412
35 -736 302 -845 697 -31 111 -31 353 0 464 91 331 341 580 673 670 119 32
326 32 449 0 276 -73 493 -251 619 -508 28 -57 61 -110 73 -119 34 -23 92 -19
125 9 24 20 28 32 28 73 0 60 -69 203 -148 307 -29 38 -58 77 -66 88 -13 17 0
18 410 18 245 0 439 4 459 10 26 7 77 51 189 164 l153 154 57 -20 c151 -54
335 26 411 177 22 43 25 63 25 150 0 86 -3 107 -24 150 -33 66 -100 131 -169
163 -48 23 -71 27 -142 27 -71 0 -94 -4 -142 -27 -69 -32 -136 -97 -168 -163
-33 -67 -40 -196 -15 -262 l18 -45 -134 -134 -134 -134 -536 0 -536 0 -97 46
c-87 41 -228 82 -338 99 l-38 6 0 84 0 85 544 0 545 0 27 23 c15 13 96 147
179 298 125 227 155 273 171 271 10 -2 55 -6 99 -9 111 -7 179 19 256 96 70
70 99 140 99 241 0 101 -29 171 -99 241 -97 97 -236 126 -368 78 -79 -30 -162
-113 -192 -192 -25 -69 -28 -182 -5 -242 8 -22 17 -47 20 -55 3 -8 -60 -132
-139 -275 l-144 -260 -496 -3 -497 -2 0 497 0 497 -27 28 -27 28 -269 0 -269
0 -29 -29z m421 -786 l0 -614 -37 -6 c-273 -44 -463 -137 -650 -318 -225 -218
-343 -495 -343 -807 0 -572 410 -1037 993 -1125 l37 -6 0 -614 0 -615 -125 0
-125 0 0 163 c-1 208 1 206 -160 247 -170 42 -349 117 -535 224 -82 47 -110
54 -148 35 -12 -6 -69 -58 -127 -115 l-105 -104 -245 245 -245 245 112 112
c145 146 145 143 65 285 -103 183 -166 333 -212 508 -45 169 -38 165 -250 165
l-160 0 0 350 0 350 163 0 c211 0 202 -6 247 165 46 175 119 348 219 520 73
125 72 129 -71 272 l-113 113 245 245 245 245 105 -104 c110 -109 134 -126
172 -126 13 0 75 29 138 65 174 99 315 154 554 220 34 10 68 27 82 42 23 25
24 31 24 189 l0 164 125 0 125 0 0 -615z m2410 -240 c62 -59 61 -141 0 -200
-28 -26 -38 -30 -91 -30 -57 0 -63 2 -94 37 -46 49 -53 95 -26 152 27 56 68
78 134 73 36 -3 55 -11 77 -32z"/>
<path d="M1929 4000 c-444 -198 -773 -585 -890 -1047 -33 -131 -49 -247 -49
-354 0 -73 2 -79 31 -108 33 -33 69 -40 113 -20 37 17 53 63 59 171 21 332
151 627 385 870 115 119 230 201 390 281 125 61 152 86 152 136 0 51 -51 101
-102 101 -12 0 -53 -14 -89 -30z"/>
<path d="M2413 3304 c-270 -55 -483 -244 -576 -512 -28 -80 -31 -98 -31 -227
-1 -120 2 -150 22 -215 82 -259 263 -440 522 -522 65 -20 95 -23 215 -22 129
0 147 3 227 31 218 76 387 233 470 436 34 84 62 227 55 285 -8 75 -73 118
-137 92 -41 -17 -56 -46 -64 -120 -17 -154 -68 -264 -170 -366 -337 -335 -904
-119 -942 361 -13 154 45 305 160 421 102 102 212 153 366 170 35 3 74 13 86
21 50 33 54 110 8 154 -31 29 -109 34 -211 13z"/>
<path d="M4673 2886 c-87 -28 -168 -99 -205 -182 l-19 -44 -165 0 -166 0 -29
-29 c-58 -59 -29 -159 52 -175 18 -3 94 -6 170 -6 l139 0 24 -47 c105 -207
384 -250 550 -86 90 88 122 244 75 368 -30 81 -112 163 -192 193 -66 25 -167
28 -234 8z m177 -212 c81 -49 83 -177 3 -229 -17 -11 -46 -19 -73 -19 -27 0
-56 8 -73 19 -79 52 -78 178 2 228 34 21 105 21 141 1z"/>
<path d="M3580 2662 c-53 -14 -90 -55 -90 -101 0 -38 25 -74 63 -91 46 -21 78
-16 112 17 20 20 25 36 25 73 0 37 -5 53 -25 73 -26 25 -59 37 -85 29z"/>
<path d="M3070 1767 c-39 -19 -62 -75 -49 -120 12 -45 42 -67 92 -67 50 0 84
24 98 69 14 47 0 85 -43 111 -38 23 -63 25 -98 7z"/>
<path d="M3455 1756 c-28 -29 -40 -66 -31 -102 4 -14 18 -37 31 -50 l24 -24
363 0 363 0 134 -134 134 -134 -18 -45 c-24 -64 -18 -195 13 -258 36 -74 87
-125 160 -161 59 -29 76 -33 152 -33 71 0 94 4 142 27 69 32 136 97 169 163
21 43 24 64 24 150 0 87 -3 106 -25 149 -35 69 -100 133 -168 164 -48 22 -70
26 -142 26 -55 0 -97 -6 -120 -17 l-35 -15 -161 159 -161 159 -412 0 -412 0
-24 -24z m1421 -509 c44 -48 52 -94 25 -149 -25 -52 -65 -78 -121 -78 -56 0
-96 26 -121 78 -26 52 -20 98 18 143 35 41 58 50 117 45 42 -3 55 -9 82 -39z"/>
</g>
</svg>
